<?xml version="1.0" encoding="UTF-8" standalone="no"?>
<svg width="18px" height="16px" viewBox="0 0 18 16" version="1.1" xmlns="http://www.w3.org/2000/svg" xmlns:xlink="http://www.w3.org/1999/xlink">
    <!-- Generator: sketchtool 50.2 (55047) - http://www.bohemiancoding.com/sketch -->
    <title>71C3CDDF-5A67-48AD-9AFB-E2E8DF179970</title>
    <desc>Created with sketchtool.</desc>
    <defs></defs>
    <g id="Page-1" stroke="none" stroke-width="1" fill="none" fill-rule="evenodd" stroke-linecap="round">
        <g id="HomeLoginUser" transform="translate(-338.000000, -1204.000000)" stroke="#F5A623">
            <g id="Group-2" transform="translate(142.000000, 936.000000)">
                <g id="Group">
                    <g id="Icon-:-basket" transform="translate(197.000000, 269.000000)">
                        <path d="M0.307765104,5 L15.6917751,5 C15.9177195,5 16.0490408,5.03566667 15.9828405,5.26533333 L13.638487,13.5056667 C13.5733661,13.7313333 13.3967121,14 13.2423647,14 L2.75753531,14 C2.60354769,14 2.42725347,13.6633333 2.36141297,13.4336667 L0.0166997355,5.344 C-0.0480614095,5.11833333 0.0811010964,5 0.307765104,5 L0.307765104,5 Z" id="Stroke-168" stroke-width="2"></path>
                        <path d="M6,0 L2,5" id="Stroke-170" stroke-width="2"></path>
                        <path d="M9,0 L13,5" id="Stroke-172" stroke-width="2"></path>
                        <path d="M5,8 L5,10" id="Stroke-174"></path>
                        <path d="M11,8 L11,10" id="Stroke-176"></path>
                        <path d="M8,8 L8,10" id="Stroke-178"></path>
                    </g>
                </g>
            </g>
        </g>
    </g>
</svg>