<?xml version="1.0" encoding="UTF-8" standalone="no"?>
<svg width="21px" height="21px" viewBox="0 0 21 21" version="1.1" xmlns="http://www.w3.org/2000/svg" xmlns:xlink="http://www.w3.org/1999/xlink">
    <!-- Generator: sketchtool 50.2 (55047) - http://www.bohemiancoding.com/sketch -->
    <title>433BFCA0-028E-46FF-A882-D61E1F93A4A0</title>
    <desc>Created with sketchtool.</desc>
    <defs></defs>
    <g id="Page-1" stroke="none" stroke-width="1" fill="none" fill-rule="evenodd">
        <g id="HomeLoginUser" transform="translate(-1128.000000, -36.000000)">
            <g id="Group-2" transform="translate(0.000000, -1.000000)">
                <g id="Group">
                    <g id="icon-:-Bell-notification" transform="translate(1129.000000, 38.000000)">
                        <path d="M3.01489258,8.03808594 C3.01489258,13.5239312 2.34782609,13.9504423 0.869565217,13.9504423 C0.413043478,13.9728335 0,14.3087016 0,14.8013081 C0,15.3163058 0.391304348,15.6521739 0.869565217,15.6521739 L17.3913043,15.6521739 C17.8695652,15.6521739 18.2608696,15.3163058 18.2608696,14.8013081 C18.2608696,14.3087016 17.8695652,13.9728335 17.3913043,13.9728335 C15.9347826,13.9728335 15.3695652,13.0995765 15.3695652,7.6137313 C15.3695652,3.31461994 12.7894659,0.403041691 9.5285963,0 L8.81910241,0 C7.32867314,0.124729746 7.01257324,0.127807617 5.89453125,1.24584961" id="path2" stroke="#8B572A" stroke-width="2" stroke-linecap="round"></path>
                        <path d="M8.72867358,20 C6.68676987,20 6.21904238,17.8712313 6.08695652,16.5217391 L8.33241607,16.5217391 L8.72867364,16.5217391 L9.12493121,16.5217391 L11.3043478,16.5217391 C11.0401761,17.8712313 10.7705773,20 8.72867358,20 Z" id="path-" fill="#8B572A"></path>
                    </g>
                </g>
            </g>
        </g>
    </g>
</svg>