<?xml version="1.0" encoding="UTF-8" standalone="no"?>
<svg width="122px" height="19px" viewBox="0 0 122 19" version="1.1" xmlns="http://www.w3.org/2000/svg" xmlns:xlink="http://www.w3.org/1999/xlink">
    <!-- Generator: sketchtool 50.2 (55047) - http://www.bohemiancoding.com/sketch -->
    <title>D68E5355-D27E-463D-8835-EB0199D89810</title>
    <desc>Created with sketchtool.</desc>
    <defs></defs>
    <g id="Page-1" stroke="none" stroke-width="1" fill="none" fill-rule="evenodd">
        <g id="HomeEcommerce" transform="translate(-558.000000, -3000.000000)">
            <g id="Group-6" transform="translate(0.000000, 2815.000000)">
                <g id="Icon-:-message" transform="translate(559.000000, 186.000000)">
                    <text id="Email-here" font-family="Lato-Regular, Lato" font-size="14" font-weight="normal" letter-spacing="1.10000002" fill="#9B9B9B">
                        <tspan x="47" y="14">Email here</tspan>
                    </text>
                    <path d="M20.2432668,17 L0.406324707,17 C0.106162921,17 0.00673432938,16.48797 0.00673432938,16.1670779 L0.00673432938,0.366011891 C0.00673432938,0.232764319 -0.0242198548,0.109996893 0.0465995666,0.0116831411 C0.0728637229,-0.0252468976 0.0667666867,0.0665791446 0.100065885,0.0376339791 C0.193866443,-0.0437119169 0.276879937,0.0321443788 0.406324707,0.0321443788 L20.2432668,0.0321443788 C20.5438976,0.0321443788 20.6428571,0.0451197978 20.6428571,0.366011891 L20.6428571,16.1670779 C20.6428571,16.48797 20.5438976,17 20.2432668,17 L20.2432668,17 Z" id="Stroke-98" stroke="#767277" stroke-width="2"></path>
                    <path d="M0,0 L8.09430439,8.73093116 C9.36414566,10.0500889 11.3921569,10.0408281 12.6507937,8.71035147 L20.6428571,0.0607100693" id="Stroke-100" stroke="#767277" stroke-width="2"></path>
                    <path d="M19.9999998,17.0000001 L14.5714286,7.28571429" id="Stroke-102" stroke="#767277" stroke-width="2"></path>
                    <path d="M0,17 L7.28571429,7.28571429" id="Stroke-104" stroke="#767277" stroke-width="2"></path>
                </g>
            </g>
        </g>
    </g>
</svg>