<?xml version="1.0" encoding="UTF-8" standalone="no"?>
<svg width="15px" height="12px" viewBox="0 0 15 12" version="1.1" xmlns="http://www.w3.org/2000/svg" xmlns:xlink="http://www.w3.org/1999/xlink">
    <!-- Generator: sketchtool 50.2 (55047) - http://www.bohemiancoding.com/sketch -->
    <title>D27A9038-5003-498A-B392-4651777B8EAC</title>
    <desc>Created with sketchtool.</desc>
    <defs></defs>
    <g id="Page-1" stroke="none" stroke-width="1" fill="none" fill-rule="evenodd">
        <g id="Cart-Product---PopUpLogin" transform="translate(-580.000000, -327.000000)" stroke="#9B9B9B">
            <g id="Group-15" transform="translate(509.000000, 180.000000)">
                <g id="Group-14">
                    <g id="Group-3" transform="translate(54.000000, 129.000000)">
                        <g id="Icon-:-message" transform="translate(18.000000, 19.000000)">
                            <path d="M12.7483548,10 L0.255886148,10 C0.0668569261,10 0.00424099636,9.69880588 0.00424099636,9.51004583 L0.00424099636,0.215301112 C0.00424099636,0.136920188 -0.0152526421,0.0647040546 0.0293464399,0.00687243596 C0.0458864968,-0.0148511162 0.0420468407,0.0391642027 0.06301727,0.0221376348 C0.122088902,-0.0257128923 0.174367296,0.0189084581 0.255886148,0.0189084581 L12.7483548,0.0189084581 C12.9376794,0.0189084581 13,0.0265410575 13,0.215301112 L13,9.51004583 C13,9.69880588 12.9376794,10 12.7483548,10 L12.7483548,10 Z" id="Stroke-98"></path>
                            <path d="M0,0 L5.09745121,5.39263395 C5.89714363,6.20740787 7.17429948,6.20168793 7.96693579,5.37992297 L13,0.0374973958" id="Stroke-100"></path>
                            <path d="M12.6190475,9.82857151 L9,4" id="Stroke-102"></path>
                            <path d="M0,10 L4.5,4.5" id="Stroke-104"></path>
                        </g>
                    </g>
                </g>
            </g>
        </g>
    </g>
</svg>